# xmcd
#
# Track frame offsets: 
#        150
#        13942
#        29205
#        44642
#        60220
#        75655
#        86575
#        100352
#        111310
#        131070
#        146527
#        158095
#        173490
#        189170
#        202397
#        218247
#
# Disc length: 3090 seconds
#
# Revision: 0
# Processed by: cddbd v1.5.2PL0 Copyright (c) Steve Scherf et al.
# Submitted via: ExactAudioCopy v1.3
#
DISCID=e50c1010
DTITLE=石原裕次郎 - 20世紀の戦士 石原裕次郎 BIG MAN the greatest collection Disc 3 00
DTITLE=CH-233-42
DYEAR=1900
DGENRE=JPop
TTITLE0=あじさいの歌
TTITLE1=夜の足音
TTITLE2=男が命を賭ける時
TTITLE3=最果てから来た男
TTITLE4=港
TTITLE5=豪傑節
TTITLE6=天下を取る
TTITLE7=街から街へつむじ風
TTITLE8=銀座の恋の物語(デュエット 牧村旬子)
TTITLE9=日本海
TTITLE10=あいつと私
TTITLE11=孤独の青春
TTITLE12=お前に逢いたいぜ
TTITLE13=若い生命を傾けて
TTITLE14=アラブの嵐
TTITLE15=男と男の生きる街
EXTD=
EXTT0=
EXTT1=
EXTT2=
EXTT3=
EXTT4=
EXTT5=
EXTT6=
EXTT7=
EXTT8=
EXTT9=
EXTT10=
EXTT11=
EXTT12=
EXTT13=
EXTT14=
EXTT15=
PLAYORDER=
